<svg xmlns="http://www.w3.org/2000/svg" version="1.1" xmlns:xlink="http://www.w3.org/1999/xlink" xmlns:svgjs="http://svgjs.dev/svgjs" width="2000" height="1247" viewBox="0 0 2000 1247"><g transform="matrix(1,0,0,1,-1.2121212121212466,0.504858299595071)"><svg viewBox="0 0 396 247" data-background-color="#ffffff" preserveAspectRatio="xMidYMid meet" height="1247" width="2000" xmlns="http://www.w3.org/2000/svg" xmlns:xlink="http://www.w3.org/1999/xlink"><g id="tight-bounds" transform="matrix(1,0,0,1,0.2400000000000091,-0.09999999999999432)"><svg viewBox="0 0 395.52 247.2" height="247.2" width="395.52"><g><svg></svg></g><g><svg viewBox="0 0 395.52 247.2" height="247.2" width="395.52"><g transform="matrix(1,0,0,1,75.54432,104.50943191068043)"><svg viewBox="0 0 244.43135999999998 38.181136178639136" height="38.181136178639136" width="244.43135999999998"><g><svg viewBox="0 0 244.43135999999998 38.181136178639136" height="38.181136178639136" width="244.43135999999998"><g><svg viewBox="0 0 244.43135999999998 38.181136178639136" height="38.181136178639136" width="244.43135999999998"><g><svg viewBox="0 0 244.43135999999998 38.181136178639136" height="38.181136178639136" width="244.43135999999998"><g id="textblocktransform"><svg viewBox="0 0 244.43135999999998 38.181136178639136" height="38.181136178639136" width="244.43135999999998" id="textblock"><g><svg viewBox="0 0 244.43135999999998 38.181136178639136" height="38.181136178639136" width="244.43135999999998"><g transform="matrix(1,0,0,1,0,0)"><svg width="244.43135999999998" viewBox="3.25 -35.45 231.77 36.21" height="38.181136178639136" data-palette-color="#000000"><path d="M31.25-10.5L31.25-10.5Q31.25-8.33 30.42-6.42 29.59-4.52 28.16-3.09 26.73-1.66 24.83-0.83 22.92 0 20.75 0L20.75 0 3.25 0 3.25-35.01 20.75-35.01Q22.92-35.01 24.83-34.18 26.73-33.35 28.16-31.92 29.59-30.49 30.42-28.59 31.25-26.68 31.25-24.51L31.25-24.51Q31.25-23.54 30.98-22.51 30.71-21.48 30.22-20.53 29.74-19.58 29.05-18.8 28.37-18.02 27.54-17.5L27.54-17.5Q28.39-17.04 29.08-16.25 29.76-15.45 30.25-14.5 30.74-13.55 30.99-12.51 31.25-11.47 31.25-10.5ZM10.25-13.99L10.25-7.01 20.75-7.01Q21.48-7.01 22.12-7.28 22.75-7.54 23.23-8.02 23.71-8.5 23.97-9.13 24.24-9.77 24.24-10.5L24.24-10.5Q24.24-11.23 23.97-11.87 23.71-12.5 23.23-12.98 22.75-13.45 22.12-13.72 21.48-13.99 20.75-13.99L20.75-13.99 10.25-13.99ZM10.25-28L10.25-21 20.75-21Q21.48-21 22.12-21.26 22.75-21.53 23.23-22.01 23.71-22.49 23.97-23.13 24.24-23.78 24.24-24.51L24.24-24.51Q24.24-25.24 23.97-25.88 23.71-26.51 23.23-26.99 22.75-27.47 22.12-27.73 21.48-28 20.75-28L20.75-28 10.25-28ZM50.56-28L43.55-28 43.55-13.99 50.56-13.99Q52-13.99 53.27-14.54 54.54-15.09 55.49-16.04 56.44-16.99 56.99-18.27 57.54-19.56 57.54-21L57.54-21Q57.54-22.44 56.99-23.72 56.44-25 55.49-25.95 54.54-26.9 53.27-27.45 52-28 50.56-28L50.56-28ZM43.55-7.01L43.55 0 36.55 0 36.55-35.01 50.56-35.01Q52.49-35.01 54.27-34.51 56.05-34.01 57.6-33.09 59.15-32.18 60.43-30.9 61.72-29.61 62.63-28.05 63.55-26.49 64.05-24.71 64.55-22.92 64.55-21L64.55-21Q64.55-19.19 64.1-17.48 63.64-15.77 62.8-14.23 61.96-12.7 60.74-11.4 59.52-10.11 58.01-9.16L58.01-9.16 61.89 0 54.44 0 51.39-7.06 43.55-7.01ZM103.44-17.36L103.44-17.36Q103.44-14.87 102.79-12.56 102.14-10.25 100.97-8.24 99.8-6.23 98.14-4.57 96.48-2.91 94.48-1.72 92.48-0.54 90.16 0.11 87.84 0.76 85.35 0.76L85.35 0.76Q82.86 0.76 80.55 0.11 78.24-0.54 76.23-1.72 74.21-2.91 72.55-4.57 70.89-6.23 69.71-8.24 68.53-10.25 67.88-12.56 67.23-14.87 67.23-17.36L67.23-17.36Q67.23-19.85 67.88-22.17 68.53-24.49 69.71-26.49 70.89-28.49 72.55-30.15 74.21-31.81 76.23-32.98 78.24-34.16 80.55-34.8 82.86-35.45 85.35-35.45L85.35-35.45Q87.84-35.45 90.16-34.8 92.48-34.16 94.48-32.98 96.48-31.81 98.14-30.15 99.8-28.49 100.97-26.49 102.14-24.49 102.79-22.17 103.44-19.85 103.44-17.36ZM96.48-17.36L96.48-17.36Q96.48-19.65 95.6-21.69 94.72-23.73 93.22-25.23 91.72-26.73 89.68-27.61 87.64-28.49 85.35-28.49L85.35-28.49Q83.03-28.49 81-27.61 78.97-26.73 77.46-25.23 75.95-23.73 75.07-21.69 74.19-19.65 74.19-17.36L74.19-17.36Q74.19-15.06 75.07-13.05 75.95-11.04 77.46-9.52 78.97-8.01 81-7.13 83.03-6.25 85.35-6.25L85.35-6.25Q87.64-6.25 89.68-7.13 91.72-8.01 93.22-9.52 94.72-11.04 95.6-13.05 96.48-15.06 96.48-17.36ZM136.03-10.5L136.03-10.5Q136.03-8.33 135.2-6.42 134.37-4.52 132.94-3.09 131.51-1.66 129.61-0.83 127.7 0 125.53 0L125.53 0 108.02 0 108.02-35.01 125.53-35.01Q127.7-35.01 129.61-34.18 131.51-33.35 132.94-31.92 134.37-30.49 135.2-28.59 136.03-26.68 136.03-24.51L136.03-24.51Q136.03-23.54 135.76-22.51 135.49-21.48 135-20.53 134.51-19.58 133.83-18.8 133.15-18.02 132.32-17.5L132.32-17.5Q133.17-17.04 133.85-16.25 134.54-15.45 135.03-14.5 135.51-13.55 135.77-12.51 136.03-11.47 136.03-10.5ZM115.03-13.99L115.03-7.01 125.53-7.01Q126.26-7.01 126.9-7.28 127.53-7.54 128.01-8.02 128.48-8.5 128.75-9.13 129.02-9.77 129.02-10.5L129.02-10.5Q129.02-11.23 128.75-11.87 128.48-12.5 128.01-12.98 127.53-13.45 126.9-13.72 126.26-13.99 125.53-13.99L125.53-13.99 115.03-13.99ZM115.03-28L115.03-21 125.53-21Q126.26-21 126.9-21.26 127.53-21.53 128.01-22.01 128.48-22.49 128.75-23.13 129.02-23.78 129.02-24.51L129.02-24.51Q129.02-25.24 128.75-25.88 128.48-26.51 128.01-26.99 127.53-27.47 126.9-27.73 126.26-28 125.53-28L125.53-28 115.03-28ZM165.83-7.01L165.83 0 141.32 0 141.32-35.01 148.33-35.01 148.33-7.01 165.83-7.01ZM202.58-17.36L202.58-17.36Q202.58-14.87 201.93-12.56 201.28-10.25 200.11-8.24 198.94-6.23 197.28-4.57 195.62-2.91 193.62-1.72 191.61-0.54 189.29 0.11 186.97 0.76 184.48 0.76L184.48 0.76Q181.99 0.76 179.69 0.11 177.38-0.54 175.37-1.72 173.35-2.91 171.69-4.57 170.03-6.23 168.85-8.24 167.66-10.25 167.02-12.56 166.37-14.87 166.37-17.36L166.37-17.36Q166.37-19.85 167.02-22.17 167.66-24.49 168.85-26.49 170.03-28.49 171.69-30.15 173.35-31.81 175.37-32.98 177.38-34.16 179.69-34.8 181.99-35.45 184.48-35.45L184.48-35.45Q186.97-35.45 189.29-34.8 191.61-34.16 193.62-32.98 195.62-31.81 197.28-30.15 198.94-28.49 200.11-26.49 201.28-24.49 201.93-22.17 202.58-19.85 202.58-17.36ZM195.62-17.36L195.62-17.36Q195.62-19.65 194.74-21.69 193.86-23.73 192.36-25.23 190.86-26.73 188.82-27.61 186.78-28.49 184.48-28.49L184.48-28.49Q182.17-28.49 180.14-27.61 178.11-26.73 176.6-25.23 175.09-23.73 174.21-21.69 173.33-19.65 173.33-17.36L173.33-17.36Q173.33-15.06 174.21-13.05 175.09-11.04 176.6-9.52 178.11-8.01 180.14-7.13 182.17-6.25 184.48-6.25L184.48-6.25Q186.78-6.25 188.82-7.13 190.86-8.01 192.36-9.52 193.86-11.04 194.74-13.05 195.62-15.06 195.62-17.36ZM235.02-17.36L235.02-3.54Q232.58-1.46 229.57-0.35 226.57 0.76 223.32 0.76L223.32 0.76Q220.83 0.76 218.53 0.11 216.22-0.54 214.22-1.72 212.22-2.91 210.56-4.55 208.9-6.2 207.72-8.22 206.55-10.23 205.91-12.55 205.26-14.87 205.26-17.36L205.26-17.36Q205.26-19.85 205.91-22.14 206.55-24.44 207.72-26.45 208.9-28.47 210.56-30.11 212.22-31.76 214.22-32.93 216.22-34.11 218.53-34.75 220.83-35.4 223.32-35.4L223.32-35.4Q226.57-35.4 229.57-34.29 232.58-33.18 235.02-31.1L235.02-31.1 231.36-25Q229.77-26.61 227.69-27.53 225.62-28.44 223.32-28.44L223.32-28.44Q221.03-28.44 219.02-27.56 217-26.68 215.49-25.18 213.97-23.68 213.1-21.67 212.22-19.65 212.22-17.36L212.22-17.36Q212.22-15.04 213.1-13.01 213.97-10.99 215.49-9.47 217-7.96 219.02-7.08 221.03-6.2 223.32-6.2L223.32-6.2Q224.64-6.2 225.89-6.52 227.13-6.84 228.26-7.4L228.26-7.4 228.26-17.36 235.02-17.36Z" opacity="1" transform="matrix(1,0,0,1,0,0)" fill="#000000" class="wordmark-text-0" data-fill-palette-color="primary" id="text-0"></path></svg></g></svg></g></svg></g></svg></g></svg></g></svg></g></svg></g><path d="M182.163 98.509L182.163 35.852 6.666 35.852 6.666 211.348 182.163 211.348 182.163 148.691 178.72 148.691 178.72 207.905 10.109 207.905 10.109 39.295 178.72 39.295 178.72 98.509Z" fill="#000000" stroke="transparent" data-fill-palette-color="tertiary"></path></svg></g><defs></defs></svg><rect width="395.52" height="247.2" fill="none" stroke="none" visibility="hidden"></rect></g></svg></g></svg>